<svg xmlns="http://www.w3.org/2000/svg" xmlns:xlink="http://www.w3.org/1999/xlink" viewBox="0 0 64 64"><defs><style>.a{fill:none;opacity:0;}.b{fill:#fee5b6;}.c{fill:url(#a);}.d{fill:#cfac6a;}.e{fill:#a88c58;}</style><linearGradient id="a" x1="32" y1="6.46" x2="32" y2="57.41" gradientUnits="userSpaceOnUse"><stop offset="0" stop-color="#fee5b6"/><stop offset="1" stop-color="#edc579"/></linearGradient></defs><rect class="a" width="64" height="64" rx="5"/><path class="b" d="M58,38.74,57.5,38l-.43-23.67a2,2,0,0,0-2.89-1.8L43,17.76,34,5.3a2.48,2.48,0,0,0-4,0L21,17.76,9.82,12.56a2,2,0,0,0-2.89,1.8L6.5,38,6,38.74a2.5,2.5,0,0,0-.46,1.45V57.65A2.49,2.49,0,0,0,8,60.14H23.38a2.49,2.49,0,0,0,2.21-1.36l5.48-10.71a1,1,0,0,1,1.86,0l5.48,10.71a2.49,2.49,0,0,0,2.21,1.36H56a2.49,2.49,0,0,0,2.48-2.49V40.19A2.5,2.5,0,0,0,58,38.74Z"/><path class="c" d="M23.63,57.25a.28.28,0,0,1-.25.16H8a.29.29,0,0,1-.28-.29V40.19l0-.17,24-33.44a.3.3,0,0,1,.48,0L56.22,40l.05.17V57.12a.29.29,0,0,1-.28.29H40.62a.28.28,0,0,1-.25-.16L32.91,43.49a1,1,0,0,0-1.82,0Z"/><path class="d" d="M45.17,19.59l8.67-3.87a.67.67,0,0,1,.94.62l-.34,15.51a.67.67,0,0,1-1.21.37L44.89,20.59A.67.67,0,0,1,45.17,19.59Z"/><path class="e" d="M48.42,25.51l-3.53-4.92a.67.67,0,0,1,.28-1l8.67-3.87a.67.67,0,0,1,.94.62Z"/><path class="d" d="M18.83,19.59l-8.67-3.87a.67.67,0,0,0-.94.62l.34,15.51a.67.67,0,0,0,1.21.37l8.34-11.63A.67.67,0,0,0,18.83,19.59Z"/><path class="e" d="M15.58,25.51l3.53-4.92a.67.67,0,0,0-.28-1l-8.67-3.87a.67.67,0,0,0-.94.62Z"/></svg>