<svg xmlns="http://www.w3.org/2000/svg" xmlns:xlink="http://www.w3.org/1999/xlink" viewBox="0 0 64 64"><defs><style>.a{fill:none;opacity:0;}.b{fill:#b2bb83;}.c{fill:#8d8d53;}.d{fill:#e5c59c;}.e{fill:#eca65e;}.f{fill:#ffd7b0;}.g{fill:#ffd2a6;}.h{fill:#db8d68;}.i{fill:#c36e51;}.j{fill:#fee5b6;}.k{fill:url(#a);}.l{fill:#f3b470;}.m{fill:#c29059;}.n{fill:url(#b);}.o{fill:url(#c);}.p{fill:#fff;}</style><linearGradient id="a" x1="13.2" y1="25.13" x2="50.8" y2="62.72" gradientUnits="userSpaceOnUse"><stop offset="0" stop-color="#ffe4b0"/><stop offset="0.6" stop-color="#ffb861"/><stop offset="0.73" stop-color="#fbba5f"/><stop offset="0.86" stop-color="#eec158"/><stop offset="0.99" stop-color="#dacd4e"/><stop offset="1" stop-color="#d8ce4d"/></linearGradient><linearGradient id="b" x1="32" y1="10.67" x2="32" y2="40.35" gradientUnits="userSpaceOnUse"><stop offset="0" stop-color="#ebc07f"/><stop offset="1" stop-color="#d09854"/></linearGradient><linearGradient id="c" x1="27.14" y1="17.1" x2="36.86" y2="33.93" gradientUnits="userSpaceOnUse"><stop offset="0" stop-color="#caea96"/><stop offset="0.1" stop-color="#bce794"/><stop offset="0.3" stop-color="#98df8d"/><stop offset="0.5" stop-color="#6dd685"/><stop offset="1" stop-color="#af9bc9"/></linearGradient></defs><rect class="a" width="64" height="64" rx="5"/><path class="b" d="M51.45,26.7l7.31-2.92a1.79,1.79,0,0,1,2.4,2.12L57.61,39.58l-7-10.2A1.79,1.79,0,0,1,51.45,26.7Z"/><path class="c" d="M51.86,28l6.57-2.63a.92.92,0,0,1,1.22,1.08L57.22,35.8Z"/><path class="d" d="M12.55,26.7,5.24,23.78a1.79,1.79,0,0,0-2.4,2.12L6.39,39.58l7-10.2A1.79,1.79,0,0,0,12.55,26.7Z"/><path class="e" d="M12.14,28,5.57,25.33a.92.92,0,0,0-1.22,1.08L6.78,35.8Z"/><path class="f" d="M53.77,34A2.14,2.14,0,0,1,52,33.1L43.68,21.46a2.1,2.1,0,0,1-.33-1.83,2.17,2.17,0,0,1,1.2-1.41l8.67-3.87a2.09,2.09,0,0,1,.89-.19,2.2,2.2,0,0,1,1.55.65,2.17,2.17,0,0,1,.62,1.56l-.34,15.51A2.16,2.16,0,0,1,53.77,34Z"/><path class="g" d="M10.23,34A2.14,2.14,0,0,0,12,33.1l8.33-11.64a2.1,2.1,0,0,0,.33-1.83,2.17,2.17,0,0,0-1.2-1.41l-8.67-3.87a2.09,2.09,0,0,0-.89-.19,2.2,2.2,0,0,0-1.55.65,2.17,2.17,0,0,0-.62,1.56l.34,15.51A2.16,2.16,0,0,0,10.23,34Z"/><path class="h" d="M45.17,19.59l8.67-3.87a.67.67,0,0,1,.94.62l-.34,15.51a.67.67,0,0,1-1.21.37L44.89,20.59A.67.67,0,0,1,45.17,19.59Z"/><path class="i" d="M48.42,25.51l-3.53-4.92a.67.67,0,0,1,.28-1l8.67-3.87a.67.67,0,0,1,.94.62Z"/><path class="j" d="M6.5,38,6,38.74a2.5,2.5,0,0,0-.46,1.45V57.65A2.49,2.49,0,0,0,8,60.14H23.38a2.49,2.49,0,0,0,2.21-1.36l5.48-10.71a1,1,0,0,1,1.86,0l5.48,10.71a2.49,2.49,0,0,0,2.21,1.36H56a2.49,2.49,0,0,0,2.48-2.49V40.19A2.5,2.5,0,0,0,58,38.74L57.5,38,34,5.3a2.48,2.48,0,0,0-4,0Z"/><path class="k" d="M23.63,57.25a.28.28,0,0,1-.25.16H8a.29.29,0,0,1-.28-.29V40.19l0-.17,24-33.44a.3.3,0,0,1,.48,0L56.22,40l.05.17V57.12a.29.29,0,0,1-.28.29H40.62a.28.28,0,0,1-.25-.16L32.91,43.49a1,1,0,0,0-1.82,0Z"/><path class="l" d="M18.83,19.59l-8.67-3.87a.67.67,0,0,0-.94.62l.34,15.51a.67.67,0,0,0,1.21.37l8.34-11.63A.67.67,0,0,0,18.83,19.59Z"/><path class="m" d="M15.58,25.51l3.53-4.92a.67.67,0,0,0-.28-1l-8.67-3.87a.67.67,0,0,0-.94.62Z"/><path class="n" d="M31.12,11.16,22.59,25a1,1,0,0,0,0,1.08l8.53,13.81a1,1,0,0,0,1.76,0l8.53-13.81a1,1,0,0,0,0-1.08L32.88,11.16A1,1,0,0,0,31.12,11.16Z"/><path class="o" d="M24.93,25l6.22-10.07a1,1,0,0,1,1.7,0L39.07,25a1,1,0,0,1,0,1.05L32.85,36.11a1,1,0,0,1-1.7,0L24.93,26A1,1,0,0,1,24.93,25Z"/><polyline class="p" points="32 17.27 27.39 25.27 32 25.27 32 17.27"/></svg>