<svg xmlns="http://www.w3.org/2000/svg" viewBox="0 0 64 64"><defs><style>.a{fill:#62bddf;}.b{fill:#fff;}</style></defs><rect class="a" width="64" height="64" rx="5"/><path class="b" d="M18.69,54.38A72.83,72.83,0,0,1,38,20.35C26.64,29.58,19,40.21,16.43,53.09,12.84,49.65,11,44.58,10.6,38.15c1-2,2.11-4,3.25-5.81a11.52,11.52,0,0,0,2.42,5.19A14.93,14.93,0,0,1,15.41,30c.79-1.12,1.91-2.61,2.75-3.63.62,1.27,1.32,2.18,2.3,1.82a8.8,8.8,0,0,1,1.21-5.64,42.94,42.94,0,0,1,4.85-4.06,25.85,25.85,0,0,0-1.14,7c1.74-4.1,3.58-7.76,5.78-9.8,6.75-3.51,14.6-5,23.65-4.36C48.54,19,44.42,24.58,41.65,29.65c-1.23,2.15-4.53,4.76-7,5.16.71,1.07,2.27,1.21,4.22.89-.4,1.09-.74,1.47-1,2.58-1.68,2.22-4.76,2.88-7,3.74.77,1.45,6.31.06,6.31.06C36.32,48.49,28.86,52,18.69,54.38Z"/></svg>