<svg xmlns="http://www.w3.org/2000/svg" viewBox="0 0 64 64"><defs><style>.a{fill:#8b66de;}.b{fill:#fff;}</style></defs><rect class="a" width="64" height="64" rx="5"/><path class="b" d="M53.66,12.32l.08-.08h-.09v-.09l-.09.09c-16.21-1-15.43,7-27.58,20.15a2.35,2.35,0,0,1-3.53,0l-2.6-3a2.15,2.15,0,0,0-3.13-.11L15,31a2.42,2.42,0,0,0,.07,3.5l4.51,4.12a3.46,3.46,0,0,1,.24,4.87c-3.65,3-6.25,2.92-8,7.61-.06,2.6,1.24,3.91,4,3.86C20,54,20.26,50.5,23.22,46.77a3.48,3.48,0,0,1,4.88.13l4.22,4.41a2.42,2.42,0,0,0,3.51,0l1.64-1.75a2.14,2.14,0,0,0-.18-3.12l-3-2.53a2.36,2.36,0,0,1-.1-3.53C47,27.92,55,28.51,53.66,12.32ZM31.8,31.43C38,20.29,42.94,17,48.43,16.94,42.65,18.36,37.61,24.69,31.8,31.43Z"/></svg>