<svg xmlns="http://www.w3.org/2000/svg" xmlns:xlink="http://www.w3.org/1999/xlink" viewBox="0 0 64 64"><defs><style>.a{fill:#b8b8b8;}.b{fill:url(#a);}.c{fill:#fff;}</style><linearGradient id="a" x1="8.1" y1="18.2" x2="55.95" y2="45.83" gradientUnits="userSpaceOnUse"><stop offset="0" stop-color="#9f75f9"/><stop offset="1" stop-color="#705ae4"/></linearGradient></defs><path class="a" d="M30.84.32l-25,14.86a2.26,2.26,0,0,0-1.12,1.95V47A2.28,2.28,0,0,0,5.8,49L30.85,63.69a2.3,2.3,0,0,0,2.3,0L58.2,49a2.28,2.28,0,0,0,1.13-2V17.13a2.26,2.26,0,0,0-1.12-1.95L33.16.32A2.25,2.25,0,0,0,30.84.32Z"/><polygon class="a" points="39.95 64 60.02 52.18 60.02 57.03 48.03 64 39.95 64"/><polygon class="a" points="24.05 64 3.98 52.18 3.98 57.03 15.97 64 24.05 64"/><path class="b" d="M31,4.16,9,17.22a2,2,0,0,0-1,1.71V45.19a2,2,0,0,0,1,1.72L31,59.84a2,2,0,0,0,2,0L55,46.91a2,2,0,0,0,1-1.72V18.93a2,2,0,0,0-1-1.71L33,4.16A2,2,0,0,0,31,4.16Z"/><path class="c" d="M50.78,21.83H41.46a1.28,1.28,0,0,1-1-.44L33,12.92a1.32,1.32,0,0,0-2,0l-7.51,8.47a1.28,1.28,0,0,1-1,.44H13.22a1.31,1.31,0,0,0-1.1,2L30.9,53.19a1.31,1.31,0,0,0,2.2,0L51.88,23.84A1.31,1.31,0,0,0,50.78,21.83ZM37.05,25.19,32.86,36.11a.92.92,0,0,1-1.72,0L27,25.19a.93.93,0,0,1,.19-1l4.19-4.41a.93.93,0,0,1,1.34,0l4.19,4.41A.93.93,0,0,1,37.05,25.19ZM51.16,43.25l-3.5-7.14-6.43,9H50A1.32,1.32,0,0,0,51.16,43.25Zm-38.32,0,3.5-7.14,6.43,9H14A1.32,1.32,0,0,1,12.84,43.25Z"/></svg>