<svg xmlns="http://www.w3.org/2000/svg" xmlns:xlink="http://www.w3.org/1999/xlink" viewBox="0 0 64 64"><defs><style>.a{fill:#b8b8b8;}.b{fill:url(#a);}.c{fill:#fff;}</style><linearGradient id="a" x1="13.02" y1="13.08" x2="50.98" y2="51.05" gradientUnits="userSpaceOnUse"><stop offset="0" stop-color="#ffc267"/><stop offset="0.5" stop-color="#ff4c5e"/><stop offset="0.61" stop-color="#ff4c67"/><stop offset="0.8" stop-color="#ff4a7f"/><stop offset="1" stop-color="#ff49a0"/></linearGradient></defs><path class="a" d="M30.84.32l-25,14.86a2.26,2.26,0,0,0-1.12,1.95V47A2.28,2.28,0,0,0,5.8,49L30.85,63.69a2.3,2.3,0,0,0,2.3,0L58.2,49a2.28,2.28,0,0,0,1.13-2V17.13a2.26,2.26,0,0,0-1.12-1.95L33.16.32A2.25,2.25,0,0,0,30.84.32Z"/><polygon class="a" points="39.95 64 60.02 52.18 60.02 57.03 48.03 64 39.95 64"/><polygon class="a" points="24.05 64 3.98 52.18 3.98 57.03 15.97 64 24.05 64"/><path class="b" d="M31,4.16,9,17.22a2,2,0,0,0-1,1.71V45.19a2,2,0,0,0,1,1.72L31,59.84a2,2,0,0,0,2,0L55,46.91a2,2,0,0,0,1-1.72V18.93a2,2,0,0,0-1-1.71L33,4.16A2,2,0,0,0,31,4.16Z"/><path class="c" d="M45.89,17.46l-6.48,1.95a1.32,1.32,0,0,1-1.45-.5L33.07,12a1.31,1.31,0,0,0-2.14,0l-4.89,7a1.32,1.32,0,0,1-1.45.5l-6.48-1.95a1.31,1.31,0,0,0-1.58,1.78L30.8,52a1.31,1.31,0,0,0,2.4,0L47.47,19.24A1.31,1.31,0,0,0,45.89,17.46Zm-6.34,7.18-3.36,3.14a.6.6,0,0,0-.18.53l.68,4.29a.59.59,0,0,1-.9.59L32.32,31a.61.61,0,0,0-.64,0l-3.47,2.19a.59.59,0,0,1-.9-.59L28,28.31a.6.6,0,0,0-.18-.53l-3.36-3.14a.59.59,0,0,1,.4-1h4a.58.58,0,0,0,.53-.34L31.47,19a.58.58,0,0,1,1.06,0l2.11,4.31a.58.58,0,0,0,.53.34h4A.59.59,0,0,1,39.55,24.64Z"/><path class="c" d="M48.54,29.07l4.34,3a1.82,1.82,0,0,1-.21,3.12l-6,3.07a2.33,2.33,0,0,0-1.09,2.95l2.71,6.64a1.39,1.39,0,0,1-1.9,1.77l-7.65-3.75Z"/><path class="c" d="M15.46,29.07l-4.34,3a1.82,1.82,0,0,0,.21,3.12l6,3.07a2.33,2.33,0,0,1,1.09,2.95l-2.71,6.64a1.39,1.39,0,0,0,1.9,1.77l7.65-3.75Z"/></svg>