<svg xmlns="http://www.w3.org/2000/svg" xmlns:xlink="http://www.w3.org/1999/xlink" viewBox="0 0 64 64"><defs><style>.a{fill:url(#a);}.b{fill:#fff;}</style><linearGradient id="a" x1="4.8" y1="16.3" x2="59.26" y2="47.74" gradientUnits="userSpaceOnUse"><stop offset="0" stop-color="#9f75f9"/><stop offset="1" stop-color="#705ae4"/></linearGradient></defs><path class="a" d="M30.84.32l-25,14.86a2.26,2.26,0,0,0-1.12,1.95V47A2.28,2.28,0,0,0,5.8,49L30.85,63.69a2.3,2.3,0,0,0,2.3,0L58.2,49a2.28,2.28,0,0,0,1.13-2V17.13a2.26,2.26,0,0,0-1.12-1.95L33.16.32A2.25,2.25,0,0,0,30.84.32Z"/><path class="b" d="M53.37,20.42H42.77a1.46,1.46,0,0,1-1.11-.5l-8.55-9.63a1.48,1.48,0,0,0-2.22,0l-8.55,9.63a1.46,1.46,0,0,1-1.11.5H10.63a1.48,1.48,0,0,0-1.25,2.29L30.75,56.12a1.49,1.49,0,0,0,2.5,0L54.62,22.71A1.48,1.48,0,0,0,53.37,20.42ZM37.75,24.25,33,36.68a1,1,0,0,1-2,0L26.25,24.25a1.06,1.06,0,0,1,.22-1.1l4.77-5a1.06,1.06,0,0,1,1.52,0l4.77,5A1.06,1.06,0,0,1,37.75,24.25Zm16,20.56-4-8.13L42.5,47h10A1.5,1.5,0,0,0,53.8,44.81Zm-43.6,0,4-8.13L21.5,47H11.55A1.5,1.5,0,0,1,10.2,44.81Z"/></svg>