<svg xmlns="http://www.w3.org/2000/svg" xmlns:xlink="http://www.w3.org/1999/xlink" viewBox="0 0 64 64"><defs><style>.a{fill:url(#a);}.b{fill:#efcf2f;}.c{fill:#34c4a8;}.d{fill:#fff;}</style><linearGradient id="a" x1="32" x2="32" y2="64" gradientUnits="userSpaceOnUse"><stop offset="0" stop-color="#ffe85e"/><stop offset="1" stop-color="#ecb758"/></linearGradient></defs><path class="a" d="M61.85,23.27H59.33V17.13a2.26,2.26,0,0,0-1.12-1.95L33.16.32a2.26,2.26,0,0,0-2.32,0l-25,14.86a2.26,2.26,0,0,0-1.12,1.95v6.14H2.15a1.5,1.5,0,0,0-1.5,1.5V37.33a1.5,1.5,0,0,0,1.5,1.5H4.67V47A2.28,2.28,0,0,0,5.8,49L30.85,63.69a2.29,2.29,0,0,0,2.3,0L58.2,49a2.28,2.28,0,0,0,1.13-2V38.83h2.52a1.5,1.5,0,0,0,1.5-1.5V24.77A1.5,1.5,0,0,0,61.85,23.27Z"/><polygon class="b" points="39.95 64 60.02 52.18 60.02 57.03 48.03 64 39.95 64"/><polygon class="b" points="24.05 64 3.98 52.18 3.98 57.03 15.97 64 24.05 64"/><path class="c" d="M31,4.16,9,17.22a2,2,0,0,0-1,1.71V45.19a2,2,0,0,0,1,1.72L31,59.84a2,2,0,0,0,2,0L55,46.91a2,2,0,0,0,1-1.72V18.93a2,2,0,0,0-1-1.71L33,4.16A2,2,0,0,0,31,4.16Z"/><path class="d" d="M39.29,30l9.64.36a1.4,1.4,0,0,1,.83,2.44L32.94,48.26a1.41,1.41,0,0,1-1.88,0L14.68,32.74a1.4,1.4,0,0,1,.83-2.44L24.14,30a1.4,1.4,0,0,0,1.14-.76l5.47-10.88a1.4,1.4,0,0,1,2.5,0l4.89,10.88A1.42,1.42,0,0,0,39.29,30Z"/></svg>