<svg xmlns="http://www.w3.org/2000/svg" viewBox="0 0 64 64"><defs><style>.a{fill:#34c4a8;}.b{fill:#fff;}</style></defs><path class="a" d="M30.84.32l-25,14.86a2.26,2.26,0,0,0-1.12,1.95V47A2.28,2.28,0,0,0,5.8,49L30.85,63.69a2.3,2.3,0,0,0,2.3,0L58.2,49a2.28,2.28,0,0,0,1.13-2V17.13a2.26,2.26,0,0,0-1.12-1.95L33.16.32A2.25,2.25,0,0,0,30.84.32Z"/><path class="b" d="M40.3,29.76l11,.41A1.6,1.6,0,0,1,52.22,33L33.07,50.51a1.59,1.59,0,0,1-2.14,0L12.28,32.85a1.6,1.6,0,0,1,1-2.78l9.82-.31a1.57,1.57,0,0,0,1.3-.87l6.22-12.38a1.6,1.6,0,0,1,2.86,0L39,28.89A1.6,1.6,0,0,0,40.3,29.76Z"/></svg>