<svg xmlns="http://www.w3.org/2000/svg" xmlns:xlink="http://www.w3.org/1999/xlink" viewBox="0 0 64 64"><defs><style>.a{fill:#b8b8b8;}.b{fill:url(#a);}.c{fill:#fff;}.d{fill:#e271f6;}</style><linearGradient id="a" x1="13.02" y1="13.08" x2="50.98" y2="51.05" gradientUnits="userSpaceOnUse"><stop offset="0" stop-color="#eb67d2"/><stop offset="1" stop-color="#8471f4"/></linearGradient></defs><path class="a" d="M30.84.32l-25,14.86a2.26,2.26,0,0,0-1.12,1.95V47A2.28,2.28,0,0,0,5.8,49L30.85,63.69a2.3,2.3,0,0,0,2.3,0L58.2,49a2.28,2.28,0,0,0,1.13-2V17.13a2.26,2.26,0,0,0-1.12-1.95L33.16.32A2.25,2.25,0,0,0,30.84.32Z"/><polygon class="a" points="39.95 64 60.02 52.18 60.02 57.03 48.03 64 39.95 64"/><polygon class="a" points="24.05 64 3.98 52.18 3.98 57.03 15.97 64 24.05 64"/><path class="b" d="M31,4.16,9,17.22a2,2,0,0,0-1,1.71V45.19a2,2,0,0,0,1,1.72L31,59.84a2,2,0,0,0,2,0L55,46.91a2,2,0,0,0,1-1.72V18.93a2,2,0,0,0-1-1.71L33,4.16A2,2,0,0,0,31,4.16Z"/><path class="c" d="M47.11,18.83l-4.36.78A2.13,2.13,0,0,1,40.89,19l-7.4-7.39a2.11,2.11,0,0,0-3,0L23.11,19a2.13,2.13,0,0,1-1.86.58l-4.36-.78A2.1,2.1,0,0,0,14.73,22L31.44,49.16a.66.66,0,0,0,1.12,0L49.27,22A2.1,2.1,0,0,0,47.11,18.83Zm.67,11.42,3.69,3.58a2.23,2.23,0,0,1-.63,3.63l-6.52,2.93a2.08,2.08,0,0,0-1.23,1.8l-.3,6A2.6,2.6,0,0,1,39,50.33L36.8,49.2ZM27.2,49.2,25,50.33a2.6,2.6,0,0,1-3.79-2.18l-.3-6a2.08,2.08,0,0,0-1.23-1.8l-6.52-2.93a2.23,2.23,0,0,1-.63-3.63l3.69-3.58Z"/><path class="d" d="M42.35,26l-9.87,8.79a.73.73,0,0,1-1,0L21.65,26a.73.73,0,0,1,.49-1.27h6a.73.73,0,0,0,.66-.42l2.52-5.56a.72.72,0,0,1,1.32,0l2.52,5.56a.73.73,0,0,0,.66.42h6A.73.73,0,0,1,42.35,26Z"/></svg>