<svg xmlns="http://www.w3.org/2000/svg" xmlns:xlink="http://www.w3.org/1999/xlink" viewBox="0 0 64 64"><defs><style>.a{fill:url(#a);}.b{fill:#fff;}.c{fill:#e271f6;}</style><linearGradient id="a" x1="10.39" y1="10.47" x2="53.61" y2="53.68" gradientUnits="userSpaceOnUse"><stop offset="0" stop-color="#eb67d2"/><stop offset="1" stop-color="#8471f4"/></linearGradient></defs><path class="a" d="M30.84.32l-25,14.86a2.26,2.26,0,0,0-1.12,1.95V47A2.28,2.28,0,0,0,5.8,49L30.85,63.69a2.3,2.3,0,0,0,2.3,0L58.2,49a2.28,2.28,0,0,0,1.13-2V17.13a2.26,2.26,0,0,0-1.12-1.95L33.16.32A2.25,2.25,0,0,0,30.84.32Z"/><path class="b" d="M49.2,17l-5,.89a2.4,2.4,0,0,1-2.11-.67L33.69,8.82a2.4,2.4,0,0,0-3.38,0l-8.43,8.41a2.4,2.4,0,0,1-2.11.67l-5-.89a2.4,2.4,0,0,0-2.46,3.62l19,30.91a.74.74,0,0,0,1.26,0l19-30.91A2.4,2.4,0,0,0,49.2,17ZM50,30l4.2,4.07a2.53,2.53,0,0,1-.72,4.13L46,41.55a2.4,2.4,0,0,0-1.4,2.05l-.34,6.78A3,3,0,0,1,40,52.87l-2.51-1.29ZM26.54,51.58,24,52.87a3,3,0,0,1-4.31-2.49l-.34-6.78A2.4,2.4,0,0,0,18,41.55l-7.42-3.34a2.53,2.53,0,0,1-.72-4.13L14,30Z"/><path class="c" d="M43.78,25.11l-11.23,10a.83.83,0,0,1-1.1,0l-11.23-10a.83.83,0,0,1,.55-1.44h6.85a.84.84,0,0,0,.76-.48l2.87-6.33a.83.83,0,0,1,1.5,0l2.87,6.33a.84.84,0,0,0,.76.48h6.85A.83.83,0,0,1,43.78,25.11Z"/></svg>