<svg xmlns="http://www.w3.org/2000/svg" viewBox="0 0 64 64"><defs><style>.a{fill:#38bbdd;}.b{fill:#fff;}</style></defs><path class="a" d="M30.84.32l-25,14.86a2.26,2.26,0,0,0-1.12,1.95V47A2.28,2.28,0,0,0,5.8,49L30.85,63.69a2.3,2.3,0,0,0,2.3,0L58.2,49a2.28,2.28,0,0,0,1.13-2V17.13a2.26,2.26,0,0,0-1.12-1.95L33.16.32A2.25,2.25,0,0,0,30.84.32Z"/><path class="b" d="M39.38,22.73,51,23.64a1.49,1.49,0,0,1,.88,2.59L33,43.22a1.5,1.5,0,0,1-2,0l-18.9-17A1.49,1.49,0,0,1,13,23.64l11.64-.91a1.5,1.5,0,0,0,1.22-.82l4.83-9.58a1.49,1.49,0,0,1,2.66,0l4.83,9.58A1.5,1.5,0,0,0,39.38,22.73Zm6,24.11-2.08-8.3h0L36.8,45.07h0l6.4,3.45A1.5,1.5,0,0,0,45.37,46.84ZM20.8,48.52l6.4-3.45h0l-6.49-6.53h0l-2.08,8.3A1.5,1.5,0,0,0,20.8,48.52Z"/></svg>