<svg xmlns="http://www.w3.org/2000/svg" xmlns:xlink="http://www.w3.org/1999/xlink" viewBox="0 0 64 64"><defs><style>.a{fill:url(#a);}.b{fill:#fff;}</style><linearGradient id="a" x1="10.39" y1="10.47" x2="53.61" y2="53.68" gradientUnits="userSpaceOnUse"><stop offset="0" stop-color="#ffc267"/><stop offset="0.5" stop-color="#ff4c5e"/><stop offset="0.61" stop-color="#ff4c67"/><stop offset="0.8" stop-color="#ff4a7f"/><stop offset="1" stop-color="#ff49a0"/></linearGradient></defs><path class="a" d="M30.84.32l-25,14.86a2.26,2.26,0,0,0-1.12,1.95V47A2.28,2.28,0,0,0,5.8,49L30.85,63.69a2.3,2.3,0,0,0,2.3,0L58.2,49a2.28,2.28,0,0,0,1.13-2V17.13a2.26,2.26,0,0,0-1.12-1.95L33.16.32A2.25,2.25,0,0,0,30.84.32Z"/><path class="b" d="M47.81,15.45l-7.37,2.22a1.48,1.48,0,0,1-1.65-.57L33.22,9.19a1.5,1.5,0,0,0-2.44,0L25.21,17.1a1.48,1.48,0,0,1-1.65.57l-7.37-2.22a1.5,1.5,0,0,0-1.8,2L30.63,54.71a1.49,1.49,0,0,0,2.74,0L49.61,17.48A1.5,1.5,0,0,0,47.81,15.45ZM40.6,23.62,36.77,27.2a.68.68,0,0,0-.21.59l.78,4.89a.67.67,0,0,1-1,.68l-4-2.5a.67.67,0,0,0-.72,0l-4,2.5a.67.67,0,0,1-1-.68l.78-4.89a.68.68,0,0,0-.21-.59L23.4,23.62a.67.67,0,0,1,.46-1.16h4.53a.68.68,0,0,0,.61-.38l2.39-4.91a.68.68,0,0,1,1.22,0L35,22.08a.68.68,0,0,0,.61.38h4.53A.67.67,0,0,1,40.6,23.62Z"/><path class="b" d="M50.83,28.66l4.94,3.44a2.08,2.08,0,0,1-.24,3.56l-6.81,3.49a2.64,2.64,0,0,0-1.24,3.35l3.08,7.57a1.58,1.58,0,0,1-2.16,2l-8.71-4.27Z"/><path class="b" d="M13.17,28.66,8.23,32.1a2.08,2.08,0,0,0,.24,3.56l6.81,3.49a2.64,2.64,0,0,1,1.24,3.35l-3.08,7.57a1.58,1.58,0,0,0,2.16,2l8.71-4.27Z"/></svg>