<svg xmlns="http://www.w3.org/2000/svg" xmlns:xlink="http://www.w3.org/1999/xlink" viewBox="0 0 64 64"><defs><style>.a{fill:url(#a);}.b{fill:#fff;}</style><linearGradient id="a" x1="1.46" y1="1.46" x2="62.54" y2="62.54" gradientUnits="userSpaceOnUse"><stop offset="0" stop-color="#df5af2"/><stop offset="1" stop-color="#9665df"/></linearGradient></defs><rect class="a" width="64" height="64" rx="5"/><path class="b" d="M57.69,7.34c-24.6-1.88-15.76,4.95-34.81,27.31-3.95-2-6.26-5-6.55-9.28L8,33.72c6,.67,9.14,3.45,11.29,7C17.53,44.21,13.52,46.75,8.93,49l3.53,3.54L16,56.1c2.28-4.59,4.82-8.6,8.34-10.35,3.52,2.15,6.3,5.31,7,11.29l8.35-8.34c-4.3-.29-7.31-2.6-9.28-6.55C52.74,23.1,59.57,31.94,57.69,7.34Zm-22.86,20c5.34-9,10.94-16.69,17.16-15.52C45.92,16.85,40.62,22.62,34.83,27.35Z"/></svg>