<svg xmlns="http://www.w3.org/2000/svg" xmlns:xlink="http://www.w3.org/1999/xlink" viewBox="0 0 64 64"><defs><style>.a{fill:url(#a);}.b{fill:#fff;opacity:0.4;}.c{fill:url(#b);}.d{fill:url(#c);}.e{fill:url(#d);}</style><linearGradient id="a" x1="32" y1="0.02" x2="32" y2="63.98" gradientUnits="userSpaceOnUse"><stop offset="0" stop-color="#d17afd"/><stop offset="1" stop-color="#fe2b71"/></linearGradient><linearGradient id="b" x1="41.13" y1="44.21" x2="51.74" y2="54.82" gradientUnits="userSpaceOnUse"><stop offset="0" stop-color="#c82b9d"/><stop offset="1" stop-color="#d02381"/></linearGradient><linearGradient id="c" x1="33.73" y1="12.51" x2="18.09" y2="28.15" gradientUnits="userSpaceOnUse"><stop offset="0" stop-color="#a9328d"/><stop offset="1" stop-color="#a9328d"/></linearGradient><linearGradient id="d" x1="31.24" y1="35.03" x2="25.68" y2="40.6" gradientUnits="userSpaceOnUse"><stop offset="0" stop-color="#fff" stop-opacity="0.7"/><stop offset="1" stop-color="#fff" stop-opacity="0.4"/></linearGradient></defs><path class="a" d="M54.78,28.92,37.93,20a1.49,1.49,0,0,0-1.75.27L25.49,30.91A1.5,1.5,0,0,0,25.05,32v7.38a1.51,1.51,0,0,0,.84,1.35l5.33,2.65a1.49,1.49,0,0,0,1.5-.09l5.17-3.41h3.83c.44.08.67.76.67.89V42.6a1.34,1.34,0,0,1-.68,1.16l-9,5.62a1.44,1.44,0,0,1-1.42,0L20.51,43.93a1.34,1.34,0,0,1-.68-1.16V29.88a1.32,1.32,0,0,1,.36-.91l11-11.42A3.09,3.09,0,0,0,32,15.43V1.63A1.6,1.6,0,0,0,29.24.52L8.46,22.38a3,3,0,0,0-.82,2.06V49a3,3,0,0,0,1.51,2.59l21.26,12a3.22,3.22,0,0,0,3.18,0l21.26-12A3,3,0,0,0,56.36,49V31.55A3,3,0,0,0,54.78,28.92Z"/><path class="b" d="M14.42,44.7V27.26L8,23a3.18,3.18,0,0,0-.36,1.76V49.3A3,3,0,0,0,8,50.72l.15-.08,5.72-4.77A1.54,1.54,0,0,0,14.42,44.7Z"/><path class="c" d="M54.85,51.56A3,3,0,0,0,56.36,49V31.55A3,3,0,0,0,56,30.22l-6,5.08a1.49,1.49,0,0,0-.54,1.16V44.9a1.48,1.48,0,0,1-.7,1.25L32.72,56.09A1.52,1.52,0,0,0,32,57.38V64h0a3.2,3.2,0,0,0,1.58-.42Z"/><path class="d" d="M19.83,29.88a1.32,1.32,0,0,1,.36-.91l11-11.42A3.09,3.09,0,0,0,32,15.43V10.78L19.83,24.47Z"/><path class="e" d="M25.05,32v7.38a1.51,1.51,0,0,0,.84,1.35l5.33,2.65a1.49,1.49,0,0,0,.8.15V36.42a1.51,1.51,0,0,0-.83-1.34Z"/></svg>