<svg xmlns="http://www.w3.org/2000/svg" viewBox="0 0 64 64"><defs><style>.a{fill:#8be6d8;}.b{fill:#35d0ca;}.c{fill:#42d6be;}.d{fill:#1babae;}.e{fill:#39d2c7;}</style></defs><path class="a" d="M4.27,32a3.62,3.62,0,0,1,.86-2.34L29.24,1.28A3.61,3.61,0,0,1,32,0V14.22a1.74,1.74,0,0,0-1.38.71l-12,15.77a2.13,2.13,0,0,0-.44,1.3Zm0,0"/><path class="b" d="M18.13,32a2.13,2.13,0,0,0,.44,1.3L30.62,49.07a1.74,1.74,0,0,0,1.38.71V64a3.61,3.61,0,0,1-2.76-1.28L5.13,34.34A3.62,3.62,0,0,1,4.27,32ZM4.27,32"/><path class="c" d="M32,32H59.73a3.62,3.62,0,0,0-.86-2.34L34.76,1.28A3.61,3.61,0,0,0,32,0Z"/><path class="d" d="M32,32H59.73a3.62,3.62,0,0,1-.86,2.34L34.76,62.72A3.61,3.61,0,0,1,32,64Z"/><path class="e" d="M31.53,21.91l-6.34,8.8a1.28,1.28,0,0,0,0,1.45L31.53,41A.86.86,0,0,0,33,41l6.34-8.79a1.28,1.28,0,0,0,0-1.45L33,21.91A.87.87,0,0,0,31.53,21.91Z"/></svg>